<svg width="26" height="28" viewBox="0 0 26 28" fill="none" xmlns="http://www.w3.org/2000/svg">
<g filter="url(#filter0_d_417_16)">
<path fill-rule="evenodd" clip-rule="evenodd" d="M13.0361 0H12.9648C9.59565 0 6.50654 2.44456 6.20685 5.68096C6.18686 5.91248 6.17324 6.14906 6.16444 6.40391L6.15213 6.99974L6.14969 7.53395L6.16473 7.47306C6.02569 8.15105 5.70525 8.77993 5.23653 9.29378L5.16936 9.3802C4.76804 9.98985 4.53744 10.6955 4.50175 11.4242L4.5009 11.6624C4.48041 12.6208 4.80882 13.5691 5.42663 14.3223C6.26444 15.2069 7.34896 15.7346 8.51296 15.8466C11.49 16.1699 14.502 16.1699 17.4873 15.8457C18.6434 15.7393 19.7311 15.2101 20.5338 14.3582C21.1399 13.6331 21.4707 12.763 21.499 11.862L21.5 11.4587C21.4668 10.698 21.2348 9.99168 20.8286 9.38467L20.7669 9.30546L20.6162 9.12821C20.2776 8.70525 20.0303 8.21802 19.8896 7.69688L19.845 7.50977L19.8358 7.31353C19.833 7.22527 19.8317 7.1274 19.8312 7.00516L19.8311 6.33206C19.8288 6.07458 19.8212 5.89148 19.8034 5.68536C19.4934 2.44285 16.4034 0 13.0361 0ZM12.9648 1.39535H13.0361C15.7336 1.39535 18.1944 3.34075 18.4307 5.81326C18.4447 5.97558 18.4509 6.13044 18.4528 6.3605L18.4555 7.26514C18.4585 7.40982 18.4642 7.53013 18.4739 7.66551L18.4868 7.75818L18.5517 8.03396C18.744 8.7635 19.0893 9.44409 19.5647 10.0309L19.7026 10.1926L19.6873 10.1672C19.951 10.5613 20.1013 11.0186 20.1223 11.4901L20.1216 11.6536C20.1375 12.3097 19.9199 12.933 19.5084 13.4267C18.9645 14.002 18.1871 14.3802 17.3514 14.4572C14.4527 14.7719 11.5393 14.7719 8.65168 14.4583C7.80682 14.377 7.02881 13.9985 6.45369 13.3931C6.08086 12.9356 5.86568 12.3142 5.87919 11.6774L5.87935 11.4587L5.89682 11.2682C5.9389 10.9495 6.04539 10.6265 6.21045 10.3291L6.29415 10.1905C6.90779 9.50037 7.32892 8.66113 7.51441 7.75667L7.52879 7.61486L7.53532 6.69559L7.55137 6.2292C7.55866 6.08207 7.56798 5.94228 7.57967 5.80678C7.80804 3.34087 10.2665 1.39535 12.9648 1.39535ZM6.29415 10.1905C6.27931 10.2072 6.26436 10.2238 6.24929 10.2404L6.29856 10.1833L6.29415 10.1905ZM15.608 17.6906C15.3114 17.4491 14.8775 17.4967 14.6389 17.7969C14.5355 17.927 14.4158 18.0437 14.2826 18.1443C13.8307 18.4986 13.2669 18.6564 12.7064 18.5896C12.1467 18.523 11.6379 18.2381 11.2927 17.7995C11.0555 17.4981 10.6219 17.4484 10.3242 17.6885C10.0265 17.9286 9.9774 18.3676 10.2146 18.6689C10.787 19.3962 11.6258 19.8659 12.5453 19.9754C13.464 20.0849 14.3891 19.826 15.1167 19.255C15.3327 19.0922 15.5366 18.8935 15.7129 18.6715C15.9515 18.3713 15.9045 17.9321 15.608 17.6906Z" fill="#200E32"/>
</g>
<defs>
<filter id="filter0_d_417_16" x="0.5" y="0" width="25" height="28" filterUnits="userSpaceOnUse" color-interpolation-filters="sRGB">
<feFlood flood-opacity="0" result="BackgroundImageFix"/>
<feColorMatrix in="SourceAlpha" type="matrix" values="0 0 0 0 0 0 0 0 0 0 0 0 0 0 0 0 0 0 127 0" result="hardAlpha"/>
<feOffset dy="4"/>
<feGaussianBlur stdDeviation="2"/>
<feComposite in2="hardAlpha" operator="out"/>
<feColorMatrix type="matrix" values="0 0 0 0 0 0 0 0 0 0 0 0 0 0 0 0 0 0 0.25 0"/>
<feBlend mode="normal" in2="BackgroundImageFix" result="effect1_dropShadow_417_16"/>
<feBlend mode="normal" in="SourceGraphic" in2="effect1_dropShadow_417_16" result="shape"/>
</filter>
</defs>
</svg>
